<svg xmlns="http://www.w3.org/2000/svg" xmlns:svg="http://www.w3.org/2000/svg" id="Layer_1" x="0" y="0" version="1.1" viewBox="0 0 146 166" xml:space="preserve" style="enable-background:new 0 0 146 166"><metadata id="metadata4612"/><style id="style4593" type="text/css">.st1{fill:#c00}</style><g id="g4605"><path id="path4597" d="M114.6,143.3H31c-7.2,0-13-4.8-13-10.6l0,0c0-5.9,5.9-10.6,13-10.6h83.6c7.2,0,13,4.8,13,10.6l0,0 C127.7,138.5,121.8,143.3,114.6,143.3z" class="st1"/><path id="path4599" d="M114.6,110.2H31c-7.2,0-13-4.8-13-10.6l0,0C18,93.7,23.9,89,31,89h83.6c7.2,0,13,4.8,13,10.6l0,0 C127.7,105.4,121.8,110.2,114.6,110.2z" class="st1"/><path id="path4601" d="M115,77.1H31.4c-7.2,0-13-4.8-13-10.6l0,0c0-5.9,5.9-10.6,13-10.6H115c7.2,0,13,4.8,13,10.6l0,0 C128,72.3,122.1,77.1,115,77.1z" class="st1"/><path id="path4603" d="M114.6,44H31c-7.2,0-13-4.8-13-10.6l0,0c0-5.9,5.9-10.7,13-10.7h83.6c7.2,0,13,4.8,13,10.6l0,0 C127.7,39.2,121.8,44,114.6,44z" class="st1"/></g></svg>