<svg xmlns="http://www.w3.org/2000/svg" xmlns:svg="http://www.w3.org/2000/svg" id="Layer_1" x="0" y="0" version="1.1" viewBox="0 0 146 166" xml:space="preserve" style="enable-background:new 0 0 146 166"><metadata id="metadata6693"/><style id="style6674" type="text/css">.st1{fill:#94d400}.st2{fill:#ccc}</style><path id="path6680" d="M114.6,143.3H31c-7.2,0-13-4.8-13-10.6l0,0c0-5.9,5.9-10.6,13-10.6h83.6c7.2,0,13,4.8,13,10.6l0,0 C127.7,138.5,121.8,143.3,114.6,143.3z" class="st1"/><path id="path6682" d="M99.6,40.2H46c-4.6,0-8.4-3.1-8.4-6.8l0,0c0-3.8,3.8-6.9,8.4-6.9h53.7c4.6,0,8.4,3.1,8.4,6.8l0,0 C108.1,37.1,104.3,40.2,99.6,40.2z" class="st2"/><path id="path6684" d="M99.6,73.3H46c-4.6,0-8.4-3.1-8.4-6.8l0,0c0-3.8,3.8-6.9,8.4-6.9h53.7c4.6,0,8.4,3.1,8.4,6.8l0,0 C108.1,70.2,104.3,73.3,99.6,73.3z" class="st2"/><path id="path6686" d="M99.6,106.4H46c-4.6,0-8.4-3.1-8.4-6.8l0,0c0-3.8,3.8-6.9,8.4-6.9h53.7c4.6,0,8.4,3.1,8.4,6.8l0,0 C108.1,103.3,104.3,106.4,99.6,106.4z" class="st2"/></svg>